<?xml version="1.0" encoding="utf-8"?>
<!-- Generator: Adobe Illustrator 18.1.1, SVG Export Plug-In . SVG Version: 6.00 Build 0)  -->
<svg version="1.1" id="Слой_1" xmlns="http://www.w3.org/2000/svg" xmlns:xlink="http://www.w3.org/1999/xlink" x="0px" y="0px"
	 viewBox="-299 301 200 200" enable-background="new -299 301 200 200" xml:space="preserve">
<path fill="#37DAB4" d="M-251.7,358.5c-11.3,11.5,2.7,40.1,28.9,66.3c26.2,26.2,54.7,40.2,66.3,28.9c0,0,0,0,0.1,0l12.7-12.7
	c1.8-1.8,1.8-4.8,0-6.6l-17.4-17.4c-1.8-1.8-4.8-1.8-6.6,0l-9.9,9.9c0,0-16.3-7.5-27.9-19.2c-11.6-11.6-19.2-27.9-19.2-27.9l9.9-9.9
	c1.8-1.8,1.8-4.8,0-6.6l-17.4-17.4c-1.8-1.8-4.8-1.8-6.6,0L-251.7,358.5C-251.6,358.5-251.6,358.5-251.7,358.5z"/>
</svg>
